<svg id="Layer_1" data-name="Layer 1" xmlns="http://www.w3.org/2000/svg" viewBox="0 0 293.18 50.66"><defs><style>.cls-1{fill:#fff;}</style></defs><path d="M89.81,44.51V9.22a1.8,1.8,0,0,0-.68-1.48,1.48,1.48,0,0,0-.25-.25,1.48,1.48,0,0,0-.25-.25A1.48,1.48,0,0,0,88.38,7a2,2,0,0,0-.25-.25,2,2,0,0,0-.26-.25,1.48,1.48,0,0,0-.25-.25A1.48,1.48,0,0,0,87.37,6a1.48,1.48,0,0,0-.25-.25,2,2,0,0,0-.25-.25,2,2,0,0,0-.26-.25A1.48,1.48,0,0,0,86.36,5a1.48,1.48,0,0,0-.25-.25,1.48,1.48,0,0,0-.25-.25,2,2,0,0,0-.25-.25A2,2,0,0,0,85.35,4a1.48,1.48,0,0,0-.25-.25,1.48,1.48,0,0,0-.25-.25,1.48,1.48,0,0,0-.25-.25A2,2,0,0,0,84.35,3a2,2,0,0,0-.26-.25,1.48,1.48,0,0,0-.25-.25,1.48,1.48,0,0,0-.25-.25A1.48,1.48,0,0,0,83.34,2a2,2,0,0,0-.25-.25,1.63,1.63,0,0,0-.43-.38C81.14.52,78.22,2,74.57,4.1a15.51,15.51,0,0,1-2.78,1.39l-.19.06c-.92.5-1.4,1-1.53,1.59-.17.79.36,1.48.92,2.21a4.77,4.77,0,0,1,1.31,3V28.62A12.93,12.93,0,0,0,71,27.2L70.79,27l-.25-.25-.25-.25L70,26.2c-.08-.08-.16-.17-.25-.25l-.25-.25-.25-.25L69,25.2,68.77,25c-.08-.08-.16-.17-.25-.25l-.25-.25L68,24.2,67.77,24l-.26-.25-.25-.25L67,23.2,66.76,23l-.25-.25-.26-.25c-.08-.08-.16-.17-.25-.25L65.75,22l-.25-.25-.25-.25L65,21.2a14,14,0,0,0-3-2.34,19,19,0,0,0-18.41-.15A13.87,13.87,0,0,0,41,20.61a4.29,4.29,0,0,0,0-1.16,9.19,9.19,0,0,0-2.9-4.86l-.25-.25-.26-.26c-.08-.08-.17-.16-.25-.25l-.25-.24c-.08-.08-.17-.16-.25-.25l-.26-.25-.24-.25-.27-.26-.24-.24-.26-.26-.24-.24-.26-.25c-.08-.08-.16-.17-.25-.25l-.25-.25c-.08-.09-.17-.17-.26-.26l-.24-.24-.26-.25c-.08-.08-.16-.17-.25-.25s-.17-.17-.26-.26L33,9.59l-.26-.25-.24-.25-.26-.25L32,8.59c-3.28-3.36-9-6-14.29-5.42C8.25,3.17,1.87,8.29,1.87,15.92c0,4.22,1.4,7,3.47,8.88l.25.25.25.25.25.25c.09.08.17.17.25.25l.26.25.25.25.25.25.25.25c.09.08.17.17.25.25l.26.25.25.25.25.25.25.25c.09.08.17.17.25.25l.26.25.25.25.25.25.25.25c.09.08.17.17.25.25l.26.25.25.25.25.25.25.25c.09.08.17.17.25.25,2.62,2.58,6.44,3.71,10,4.76,1,.28,1.89.55,2.77.84,0,.06,0,.11,0,.16,0,2.64-1.83,4.21-4.89,4.21a8.26,8.26,0,0,1-1.72-.18,12.21,12.21,0,0,0-2-2.75,3,3,0,0,0-.25-.25,3,3,0,0,0-.25-.25c-.08-.09-.17-.17-.25-.25s-.17-.17-.25-.25-.17-.17-.25-.25L14,36.34a3,3,0,0,0-.25-.25c-.08-.09-.17-.17-.25-.25s-.17-.17-.26-.26L13,35.34a3,3,0,0,0-.25-.25,3,3,0,0,0-.25-.25c-.08-.09-.17-.17-.25-.25s-.17-.17-.25-.25-.17-.17-.25-.25l-.26-.25a3,3,0,0,0-.25-.25c-.08-.09-.17-.17-.25-.25s-.17-.17-.26-.26l-.25-.24a3,3,0,0,0-.25-.25,3,3,0,0,0-.25-.25c-.08-.09-.17-.17-.25-.25s-.17-.17-.25-.25a5,5,0,0,0-3.7-1.68c-2.91,0-4.58,1.65-4.58,4.53A8.27,8.27,0,0,0,4,40.52l.25.25.25.25.25.25.25.25.26.26.25.24.25.25.25.25.25.25.26.25.25.25.25.25.25.25.25.25.26.26.25.24.25.25.25.25.25.25.26.25.25.25.25.25.25.25.25.25c2.92,3,8.17,5.24,15.09,5.24,8.78,0,15.1-4.32,16-10.68l.21.2.25.25.25.25.25.25.26.25.25.25.25.25.25.25.25.25.26.25c.08.08.16.17.25.25l.25.25.25.25.25.25.26.25c.08.08.16.17.25.25l.25.25.25.25.25.25.26.25.25.25.25.25.25.25A15.13,15.13,0,0,0,50,49.17a18.6,18.6,0,0,0,9.26,2.39,17.9,17.9,0,0,0,8.9-2.26A13.51,13.51,0,0,0,72.06,46a.28.28,0,0,0,.1.09,1.18,1.18,0,0,0,.25.25,1.18,1.18,0,0,0,.25.25,1.18,1.18,0,0,0,.25.25,1.23,1.23,0,0,0,.26.25,1,1,0,0,0,.25.25,1.18,1.18,0,0,0,.25.25,1.18,1.18,0,0,0,.25.25,1.18,1.18,0,0,0,.25.25,1.23,1.23,0,0,0,.26.25,1,1,0,0,0,.25.25,1.18,1.18,0,0,0,.25.25,1.18,1.18,0,0,0,.25.25,1.18,1.18,0,0,0,.25.25,1.23,1.23,0,0,0,.26.25,1,1,0,0,0,.25.25,1.18,1.18,0,0,0,.25.25,1.18,1.18,0,0,0,.25.25,1.18,1.18,0,0,0,.25.25,1.82,1.82,0,0,0,1.5.65h.1l.1-.05a25.85,25.85,0,0,1,3.6,0c1.74.07,3.34.13,4.75.13,2.75,0,4.72-.22,5.34-1a1,1,0,0,0,.23-.77,3.19,3.19,0,0,0-1.18-2.4A3.77,3.77,0,0,1,89.81,44.51Zm-88-9.82c0-2.51,1.41-3.9,4-3.9,2.74,0,4,2.25,5.37,4.6,1.62,2.82,3.45,6,8.13,6,3.4,0,5.51-1.86,5.51-4.84,0-5.06-4.63-6.42-9.53-7.85C9.29,27,2.52,25,2.49,15.92c0-7.25,6.13-12.13,15.26-12.13C25.63,2.91,33.38,9,34.07,13.3c.36,2.27-1.2,3.88-4.36,4.54-3.34,0-4.57-2.52-5.87-5.19s-2.66-5.42-6.27-5.42c-3.33,0-5.4,2-5.4,5.12,0,5.75,4.89,7.25,10.06,8.83,6,1.83,12.12,3.71,12.12,12.09,0,8-8,11.62-15.48,11.62C8.33,44.89,1.81,39.6,1.81,34.69ZM52.64,17a17.91,17.91,0,0,1,9,2.36A12.57,12.57,0,0,1,68,30.89a12.81,12.81,0,0,1-6.49,11.62A18.25,18.25,0,0,1,44,42.38a12.81,12.81,0,0,1-6.58-11.6h0A12.66,12.66,0,0,1,43.9,19.25,17.67,17.67,0,0,1,52.64,17Zm18-9.76c.09-.39.48-.76,1.2-1.16a13.26,13.26,0,0,0,3-1.47c2.6-1.46,6.15-3.47,7.48-2.73A1.19,1.19,0,0,1,82.89,3V38.27a4.27,4.27,0,0,0,1.48,3.1c.59.63,1.09,1.18,1,2v0a.32.32,0,0,1-.08.32c-.81,1-6.09.75-9.59.6-1.21,0-2.14-.08-2.8-.08a3.85,3.85,0,0,0-1,.08c-.72,0-1.16-.36-1.16-1h0a2.71,2.71,0,0,1,.9-2,4.6,4.6,0,0,0,1.32-3.11V12.35A5.38,5.38,0,0,0,71.49,9C71,8.33,70.57,7.78,70.68,7.27ZM36.82,30,36.73,30c-.08-.08-.16-.17-.25-.25l-.25-.25L36,29.21c-.08-.08-.16-.17-.25-.25s-.16-.17-.25-.25-.16-.17-.25-.25L35,28.21,34.71,28l-.25-.25-.25-.25L34,27.21c-.09-.08-.17-.17-.25-.25l-.26-.25-.25-.25L33,26.21,32.7,26c-.09-.08-.17-.17-.25-.25l-.26-.25c-.08-.08-.16-.17-.25-.25-2.48-2.46-6.13-3.59-9.53-4.63-1.14-.35-2.24-.69-3.27-1.06a9,9,0,0,1-.05-.92c0-2.82,1.79-4.49,4.77-4.5a11,11,0,0,0,2,2.85l.26.25a3,3,0,0,0,.25.25l.25.25.25.25a3.07,3.07,0,0,0,.26.25,3,3,0,0,0,.25.25,3,3,0,0,0,.25.25c.08.09.17.17.25.25s.17.17.25.25.17.17.25.25l.26.25a3,3,0,0,0,.25.25,3,3,0,0,0,.25.25l.25.25a3.07,3.07,0,0,0,.26.25,3,3,0,0,0,.25.25,3,3,0,0,0,.25.25c.08.09.17.17.25.25s.17.17.25.25.17.17.25.25l.26.25a3,3,0,0,0,.25.25,3,3,0,0,0,.25.25l.25.25A5.33,5.33,0,0,0,36,24.71h.1a9.1,9.1,0,0,0,2.3-.76A13.9,13.9,0,0,0,36.82,30Z" transform="translate(-1.19 -1.12)"/><path d="M293.79,48a1.18,1.18,0,0,0-.25-.25,1.48,1.48,0,0,0-.25-.25,1.48,1.48,0,0,0-.25-.25,1.52,1.52,0,0,0-.26-.25,1.18,1.18,0,0,0-.25-.25,1.18,1.18,0,0,0-.25-.25,1.48,1.48,0,0,0-.25-.25,1.33,1.33,0,0,0-.16-.17,6,6,0,0,1-.4-1.56c-.54-6.78-1.16-14.69-5.85-19l-.19-.18-.26-.25-.12-.13q-.33-.36-.69-.69l-.19-.19-.26-.25-.24-.24-.25-.25-.27-.27-.24-.24a3.07,3.07,0,0,0-.26-.25c-.16-.17-.32-.33-.5-.49a3,3,0,0,0-.25-.25l-.12-.13c-.15-.16-.3-.31-.46-.46s-.23-.23-.35-.34-.33-.34-.51-.51-.33-.33-.5-.49c-2.22-2.38-5.48-3.85-10.32-3.75-5.46,0-11.84,1.86-11.84,7.13a4,4,0,0,0,1.34,3.11l.25.25.25.25.25.25.26.25.25.25.25.25.25.25.25.25a3.07,3.07,0,0,0,.26.25,1.71,1.71,0,0,0,.18.2l-.13.06a9.26,9.26,0,0,0-2.38,2,12.39,12.39,0,0,0-3.17-5.62,3,3,0,0,0-.25-.25,3,3,0,0,0-.25-.25c-.08-.09-.17-.17-.25-.25s-.17-.17-.25-.25l-.26-.26-.25-.24-.25-.25-.25-.25-.25-.25-.26-.25a3,3,0,0,0-.25-.25c-.08-.09-.17-.17-.25-.25s-.17-.17-.25-.25-.17-.17-.25-.25l-.26-.25a3,3,0,0,0-.25-.25,3,3,0,0,0-.25-.25c-.08-.09-.17-.17-.25-.25s-.17-.17-.25-.25a3.07,3.07,0,0,0-.26-.25,3,3,0,0,0-.25-.25,3,3,0,0,0-.25-.25l-.25-.25-.25-.25a10.51,10.51,0,0,0-14.25-.93,1,1,0,0,0-.21-.2,2,2,0,0,0-.25-.25,2,2,0,0,0-.25-.25,2.06,2.06,0,0,0-.26-.25,1.48,1.48,0,0,0-.25-.25,2,2,0,0,0-.25-.25,2,2,0,0,0-.25-.25,1.48,1.48,0,0,0-.34-.32,2,2,0,0,0-2,.07l-.12.08a20.68,20.68,0,0,1-2.85,1.38c-4,1.77-6.66,3-6.62,4.28a2.17,2.17,0,0,0,.87,1.86,3,3,0,0,0,.25.25,3,3,0,0,0,.25.25,3,3,0,0,0,.25.25c.08.09.17.17.25.25a3.07,3.07,0,0,0,.26.25,2,2,0,0,0,.25.25,3,3,0,0,0,.25.25l.07.08a2.54,2.54,0,0,1,.31,1.23v11.2a2.26,2.26,0,0,1-.17.91c-.6-5-1.76-10-4.92-13.24a9.13,9.13,0,0,0-.7-.69l-.06-.06c-.22-.24-.45-.48-.69-.7l-.19-.18-.26-.25-.24-.25-.24-.24-.46-.45c-.16-.17-.33-.33-.5-.5l-.32-.33-.47-.45-.28-.28-.21-.21c-.2-.21-.41-.42-.62-.61-.06-.07-.13-.12-.19-.18l-.25-.26-.14-.14c-.27-.29-.56-.57-.86-.84-2.2-2-5.3-3.27-9.74-3.18-5.46,0-11.84,1.86-11.84,7.13a4.55,4.55,0,0,0,.26,1.51l-.24-.24-.25-.25-.26-.25-.24-.25-.26-.25-.26-.25-.24-.25-.26-.25c-.08-.08-.16-.17-.25-.25l-.25-.25-.25-.25-.25-.25-.26-.25-.25-.25-.24-.24-.26-.26-.26-.25a3,3,0,0,0-.25-.25c-.08-.08-.16-.17-.25-.25-2.47-2.51-6.53-4.52-10.29-3.9A15.24,15.24,0,0,0,164.67,22a2.28,2.28,0,0,0-.22-.22,2.83,2.83,0,0,0-.25-.24l-.25-.26L163.7,21a3,3,0,0,0-.26-.25,2,2,0,0,0-.25-.25,2,2,0,0,0-.25-.25,3,3,0,0,0-.25-.25c-.08-.09-.17-.17-.25-.25s-.17-.18-.26-.26-.16-.17-.25-.25a2.83,2.83,0,0,0-.25-.24l-.25-.25-.25-.25a3,3,0,0,0-.26-.25,2,2,0,0,0-.25-.25A5.91,5.91,0,0,0,157,16.26a9,9,0,0,0-6.66,2.11,2.19,2.19,0,0,0-.22-.2,2,2,0,0,0-.25-.25,2,2,0,0,0-.25-.25l-.25-.25a2.06,2.06,0,0,0-.26-.25,1.48,1.48,0,0,0-.25-.25,2,2,0,0,0-.25-.25,1.47,1.47,0,0,0-.31-.3,2,2,0,0,0-2,.06l-8,3.77c-1,.63-1.53,1.23-1.6,1.87-.11.85.53,1.5,1.2,2.19A4.37,4.37,0,0,1,139.39,27V38.26a3.6,3.6,0,0,1-.91,2.37c-3.29-7.25-7.37-17.36-9.6-22.87-.94-2.33-1.64-4.06-2-4.8a5.52,5.52,0,0,0-1.34-2c-.08-.08-.16-.17-.25-.25s-.16-.17-.25-.25l-.25-.25-.26-.25c-.08-.08-.16-.17-.25-.25s-.16-.17-.25-.25-.16-.17-.25-.25L123.57,9l-.26-.25c-.08-.08-.16-.17-.25-.25s-.16-.17-.25-.25-.16-.17-.25-.25l-.25-.25-.26-.25c-.08-.08-.16-.17-.25-.25s-.16-.17-.25-.25-.16-.17-.25-.25l-.25-.25-.26-.25L120.54,6l-.25-.25L120,5.47l-.25-.25L119.53,5a4.23,4.23,0,0,0-3.29-1.29l-.17,0a14.11,14.11,0,0,1-2.32,0c-3-.18-5.38-.24-6.24.67a1.17,1.17,0,0,0-.33.9,3.69,3.69,0,0,0,1.08,2.37c.75,1,1.46,1.91,1,3C100.47,33.52,99,37.38,98.72,38.09h0a10.47,10.47,0,0,1-2,2.82c-.94,1.07-1.69,1.92-1.42,2.78a1.31,1.31,0,0,0,.48.67,1.54,1.54,0,0,0,.26.25,1.18,1.18,0,0,0,.25.25,1.18,1.18,0,0,0,.25.25,1.48,1.48,0,0,0,.25.25,2,2,0,0,0,.25.25,2,2,0,0,0,.25.25,1.54,1.54,0,0,0,.26.25,1.18,1.18,0,0,0,.25.25,1.48,1.48,0,0,0,.25.25,2,2,0,0,0,.25.25,1.54,1.54,0,0,0,.26.25,1.18,1.18,0,0,0,.25.25,1.18,1.18,0,0,0,.25.25,1.48,1.48,0,0,0,.25.25,2,2,0,0,0,.25.25,2,2,0,0,0,.25.25,1.54,1.54,0,0,0,.26.25,1.18,1.18,0,0,0,.25.25,1.48,1.48,0,0,0,.25.25,2,2,0,0,0,.25.25,2,2,0,0,0,.25.25,1.54,1.54,0,0,0,.26.25,1.18,1.18,0,0,0,.25.25,1.48,1.48,0,0,0,.25.25,3,3,0,0,0,1.57.82l.16,0,.14-.05a17.13,17.13,0,0,1,2.63,0c3.49.18,6.23.25,7.14-.71a1.18,1.18,0,0,0,.3-.6h.39l-.45-.75a15.77,15.77,0,0,0-1.82-2.49c-1-1.13-1-1.16.54-5.15h7.07a16.6,16.6,0,0,0-.93,1.39l-.07.11v.31a.91.91,0,0,0,.19.76.93.93,0,0,0,.23.21l0,0a.93.93,0,0,0,.23.21l0,0a.93.93,0,0,0,.23.21l0,0a1,1,0,0,0,.24.21s0,0,0,0a1,1,0,0,0,.24.21s0,0,0,0a.93.93,0,0,0,.23.21s0,0,0,0a.93.93,0,0,0,.23.21s0,0,0,0a.93.93,0,0,0,.23.21s0,0,0,0a1,1,0,0,0,.24.21s0,0,0,0a1,1,0,0,0,.24.21s0,0,0,0a.93.93,0,0,0,.23.21s0,0,0,0a.93.93,0,0,0,.23.21s0,0,0,0a.93.93,0,0,0,.23.21s0,0,0,0a1,1,0,0,0,.24.21s0,0,0,0a1,1,0,0,0,.24.21l0,0a.93.93,0,0,0,.23.21l0,0a.93.93,0,0,0,.23.21l0,0a.93.93,0,0,0,.23.21l0,0a1,1,0,0,0,.24.21s0,0,0,0a1,1,0,0,0,.24.21s0,0,0,0a.93.93,0,0,0,.23.21s0,0,0,0a.93.93,0,0,0,.23.21s0,0,0,0a.93.93,0,0,0,.23.21s0,0,0,0a1,1,0,0,0,.24.21s0,0,0,0a1,1,0,0,0,.24.21s0,0,0,0c.58.75,2.52,1,6.1,1,1.6,0,3.52,0,5.79-.13a39,39,0,0,1,4.18-.06l.11.06h.12a2,2,0,0,0,1.48-.55,1.52,1.52,0,0,0,.36-.78h0a1.3,1.3,0,0,0,.21.18l0,.07a1.3,1.3,0,0,0,.21.18s0,0,0,.07c.63.73,2.59.94,5.33.94,1.39,0,3,0,4.69-.12a28.11,28.11,0,0,1,3.59-.05l.17.08.17,0c.68-.19,1.59-.53,1.8-1.29s-.51-1.61-1.35-2.5-1.77-1.86-1.73-2.88V34a10.18,10.18,0,0,1,.61-4.21l.16.15a3,3,0,0,0,.25.25,3,3,0,0,0,.25.25,3.07,3.07,0,0,0,.26.25,3,3,0,0,0,.25.26l.25.24a3,3,0,0,0,.25.25,3,3,0,0,0,.25.25,3.07,3.07,0,0,0,.26.25,2,2,0,0,0,.25.25,3,3,0,0,0,.25.25,3,3,0,0,0,.25.25,3,3,0,0,0,.25.25,3.07,3.07,0,0,0,.26.25,3.37,3.37,0,0,0,1.75,1,12.64,12.64,0,0,0,4,6.81l.26.25.25.25.25.25c.09.08.16.17.25.25l.26.25.25.25.25.25.25.25.25.25.25.25.26.25.25.25.25.25c.09.08.16.17.25.25l.26.25.25.25.25.25c.09.08.16.17.25.25s.16.17.25.25.17.17.25.25l.26.25.25.25.25.25c.09.08.16.17.25.25a17.72,17.72,0,0,0,10.62,4.65c.45,0,.89,0,1.35,0,4.57,0,9.53-1.94,11.18-7.38l0,0,.26.26.25.24c.08.09.17.17.25.25l.25.26.25.24.26.25.25.26.25.24.25.25.25.25.26.26.25.24c.08.09.17.17.25.25s.17.17.25.25.17.17.26.26l.25.24a10.4,10.4,0,0,0,3.78,2.45,14.76,14.76,0,0,0,5.33,1,10.12,10.12,0,0,0,7-2.35l.12.11c.07.08.16.16.25.25.82,1,2.56,1.62,5,1.78,2.75.18,6.64-.35,7.28-2l.11.1.25.25a2.06,2.06,0,0,0,.26.25,1.48,1.48,0,0,0,.25.25,2.88,2.88,0,0,0,1.55.81h12.37a1.76,1.76,0,0,0,1.47-.54,1.59,1.59,0,0,0,.39-1.26,3.34,3.34,0,0,0-1.16-2.2,4.73,4.73,0,0,1-1.24-1.94.29.29,0,0,0,.08.07l.05.07a1.2,1.2,0,0,0,.2.18l.05.07a1.2,1.2,0,0,0,.2.18L243,46a1.8,1.8,0,0,0,.2.18l.05.07.2.18.06.07a1.2,1.2,0,0,0,.2.18l0,.07a1.23,1.23,0,0,0,.2.19l0,.07.21.18,0,.06a.85.85,0,0,0,.2.17.24.24,0,0,0,.06.08.79.79,0,0,0,.19.17.24.24,0,0,0,.06.08,1.23,1.23,0,0,0,.2.19L245,48a1.23,1.23,0,0,0,.2.19l.05.06a2,2,0,0,0,.21.19l0,.06a2,2,0,0,0,.21.19.21.21,0,0,1,0,.06,2,2,0,0,0,.21.19L246,49a.91.91,0,0,0,.2.19s0,0,.05.06a.78.78,0,0,0,.21.19s0,0,0,.06a1.2,1.2,0,0,0,.2.18l.05.07a1.2,1.2,0,0,0,.2.18L247,50a1.8,1.8,0,0,0,.2.18l.06.07a1.66,1.66,0,0,0,.19.18l.06.07a1.2,1.2,0,0,0,.2.18l0,.07a1.89,1.89,0,0,0,1.47.55H260.6a1.93,1.93,0,0,0,1.45-.56,1.65,1.65,0,0,0,.39-1.27,3.81,3.81,0,0,0-.92-2.18,4.93,4.93,0,0,1-1.12-2.76l-.1-1.33a2,2,0,0,0,.21.2,3,3,0,0,0,.25.25c.08.09.17.17.25.25s.17.17.25.25a3.07,3.07,0,0,0,.26.25l.25.25.25.26.25.24.25.25a3.07,3.07,0,0,0,.26.25l.25.25.25.25.25.25.25.26.26.25.25.24a3,3,0,0,0,.25.25c.08.09.17.17.25.25s.17.17.25.25a3.07,3.07,0,0,0,.26.25,3,3,0,0,0,.25.25,10.4,10.4,0,0,0,3.78,2.45,14.76,14.76,0,0,0,5.33,1,10.12,10.12,0,0,0,6.95-2.35l.12.11a3,3,0,0,0,.25.25c.82,1,2.56,1.62,5,1.78,3,.19,7.2-.42,7.37-2.37v0A1.45,1.45,0,0,0,293.79,48ZM119.14,43.4v-.22a15.63,15.63,0,0,1,1.72-2.36c1.23-1.43,1.21-1.6-.54-6.12l0-.08H105.72l0,.08c-1.75,4.54-1.77,4.71-.55,6.11a15.28,15.28,0,0,1,1.74,2.37,1.15,1.15,0,0,0,0,.2.49.49,0,0,1-.14.43c-.77.82-4.17.65-6.65.52a12.74,12.74,0,0,0-2.84,0c-.79-.21-1.22-.48-1.32-.81-.17-.53.51-1.3,1.29-2.19a10.72,10.72,0,0,0,2.08-3c0-.07,10.5-27.18,10.6-27.45.53-1.43-.35-2.6-1.13-3.62a3.25,3.25,0,0,1-1-2,.59.59,0,0,1,.16-.46c.73-.77,3.64-.6,5.76-.48a10.65,10.65,0,0,0,2.54,0A3.7,3.7,0,0,1,120,7c.32.74,1,2.44,2,4.79,3.88,9.6,11.93,29.53,14.26,31.47A1,1,0,0,1,136,44a1.33,1.33,0,0,1-1,.34,24.57,24.57,0,0,0-4.46,0c-4.21.16-10.58.39-11.38-.63A.31.31,0,0,1,119.14,43.4ZM140,38.26V27a4.81,4.81,0,0,0-1.75-3.14c-.59-.61-1.1-1.14-1-1.68s.48-.9,1.31-1.42l0,0c.34-.13,1.73-.78,8-3.71.61-.29,1.08-.33,1.38-.12.7.48.58,2.18.49,3.55a7.61,7.61,0,0,0,0,1.87h.24c.79-3.71,4.9-5.8,8.26-5.42a4.93,4.93,0,0,1,4.65,5.39h0c0,2.38-.73,5.21-4.24,5.21-2.87,0-3.34-1.68-3.76-3.17-.31-1.11-.61-2.16-1.91-2.16-2,0-2.22,3.17-2.22,5.57V38.26c-.06,1.26,1,2.35,1.89,3.31.69.73,1.34,1.41,1.2,1.91-.09.33-.52.6-1.32.84a19.49,19.49,0,0,0-3.82,0c-3.46.15-8.7.36-9.53-.6a.39.39,0,0,1-.09-.33h0v0a2.64,2.64,0,0,1,.9-2A4.54,4.54,0,0,0,140,38.26Zm22.52-7.47h0c0-9.55,7.4-14,14.3-14a8.78,8.78,0,0,1,1.35-.11,12.65,12.65,0,0,1,9.26,4.71c1.35,1.7,1.82,3.38,1.31,4.63s-1.88,1.95-4,2.21c-3-.18-4.27-2.63-5.47-5-1-2-2-3.91-4-3.91h0c-2.38.06-4.1,2.78-4.1,6.47-.49,6.25,2.94,10.45,6.57,11.85a7.72,7.72,0,0,0,9.2-2.8,1.19,1.19,0,0,1,1.31-.43,1,1,0,0,1,.62,1c-.67,7.65-7.08,9.85-12.36,9.41C169.15,44.15,161.9,38.76,162.53,30.79Zm40.94-14h.42c12.78,0,13.72,11.91,14.48,21.5.31,2.49,1.34,3.13,2.1,3.59.47.29.79.49.79,1-.13,1.26-3.64,2-6.71,1.79-2.43-.15-5-.93-5-2.63v-.4l-.24.32c-2.46,3.29-8.18,3.59-12.29,2-3.79-1.49-5.75-4.24-5.4-7.58a7.5,7.5,0,0,1,3.92-6.94,12.3,12.3,0,0,1,6.22-1.63,11.09,11.09,0,0,1,5.61,1.42l.21.13,0-.25c-.57-6.28-1-9.87-4-9.87h-.12c-1.92,0-2.56,1.71-3.24,3.52-.75,2-1.53,4.08-4.13,4.08a3.52,3.52,0,0,1-3.85-3.56C192.24,18.49,198.29,16.78,203.47,16.78Zm22.12,21.49V27.09A3.76,3.76,0,0,0,223.77,24c-.67-.55-1.25-1-1.19-1.81,0-1,3.75-2.65,6.25-3.75a18.61,18.61,0,0,0,3-1.47,1.44,1.44,0,0,1,1.39-.11c.66.44.61,1.93.58,3a8.69,8.69,0,0,0,0,1l0,.35L234,21A10,10,0,0,1,245,17c4.59,1.33,7.49,5.6,7.75,11.41,0,0,0,0,.74,9.82a5.62,5.62,0,0,0,1.24,3.08,3.2,3.2,0,0,1,.8,1.85h0a1,1,0,0,1-.22.81,1.34,1.34,0,0,1-1,.36H242.93a1.33,1.33,0,0,1-1-.35,1,1,0,0,1-.22-.83,2.9,2.9,0,0,1,.84-1.75,4.34,4.34,0,0,0,1.2-3.21,37.42,37.42,0,0,1-.25-4.57c-.11-4.64-.26-11-2.47-12.87a2.33,2.33,0,0,0-1.88-.53h-.07a3,3,0,0,0-2.21.91c-2.07,2.14-1.78,7.65-1.55,12.07a26.49,26.49,0,0,1,0,5,4.42,4.42,0,0,0,1.5,3.15,2.87,2.87,0,0,1,1,1.8,1,1,0,0,1-.23.82,1.26,1.26,0,0,1-1,.35H224.36c-.78-.2-1.22-.46-1.33-.8-.18-.51.37-1.21,1-2C224.79,40.58,225.66,39.46,225.59,38.27ZM268,27.82a11.09,11.09,0,0,1,5.61,1.42l.21.13,0-.25c-.57-6.28-1-9.87-4-9.87h-.12c-1.92,0-2.56,1.71-3.24,3.52-.75,2-1.53,4.08-4.13,4.08a3.51,3.51,0,0,1-3.84-3.56c0-4.8,6-6.51,11.22-6.51h.42c12.77,0,13.72,11.91,14.48,21.5.32,2.49,1.34,3.13,2.1,3.59.47.29.79.49.79,1-.12,1.27-3.64,2-6.71,1.79-2.44-.15-5-.93-5-2.63l0-.4-.24.32c-2.47,3.29-8.2,3.59-12.3,2-3.78-1.49-5.75-4.24-5.4-7.58a7.5,7.5,0,0,1,3.92-6.94A12.3,12.3,0,0,1,268,27.82ZM191.06,36.2a1.62,1.62,0,0,0-.19-.18,1.18,1.18,0,0,0-.25-.25,2,2,0,0,0-.25-.25,2,2,0,0,0-.25-.25,1.54,1.54,0,0,0-.26-.25l-.17-.19a6.08,6.08,0,0,0,1.42.26A8.1,8.1,0,0,0,191.06,36.2Zm51.18,3.27c-.17-3.24-.39-7.43.48-10,.08,1.44.11,2.89.14,4.2a37.56,37.56,0,0,0,.26,4.62,3.43,3.43,0,0,1-.82,2.43Q242.27,40.13,242.24,39.47Zm-47.12-10.9.1.08c.07.07.12.14.19.2l-.13.06C195.23,28.8,195.18,28.68,195.12,28.57Zm-17,3.47c0-2.65,1-4.8,2.38-5.56a7,7,0,0,0,.82.9l.25.25.25.25.26.25c.08.08.16.17.25.25a3,3,0,0,0,.25.25l.25.25c.09.08.17.17.25.25l.26.25c.08.08.16.17.25.25s.16.17.25.25l.25.25.25.25.26.25c.08.08.16.17.25.25a3,3,0,0,0,.25.25l.25.25c.09.08.17.17.25.25l.26.25.25.25.25.25.25.25.25.25.26.25.25.25a3.33,3.33,0,0,0,.39.36,1.9,1.9,0,0,0-1.3.7,7.11,7.11,0,0,1-7.72,2.83A12.78,12.78,0,0,1,178.11,32Z" transform="translate(-1.19 -1.12)"/><path class="cls-1" d="M18.87,44.89c7.45,0,15.48-3.64,15.48-11.62,0-8.38-6.16-10.26-12.12-12.09-5.17-1.58-10.06-3.08-10.06-8.83,0-3.16,2.07-5.12,5.4-5.12,3.61,0,5,2.76,6.27,5.42s2.53,5.19,5.87,5.19c3.16-.66,4.72-2.27,4.36-4.54C33.38,9,25.63,2.91,17.75,3.79,8.62,3.79,2.49,8.67,2.49,15.92c0,9,6.8,11,12.76,12.79,4.9,1.43,9.53,2.79,9.53,7.85,0,3-2.11,4.84-5.51,4.84-4.68,0-6.51-3.19-8.13-6C9.78,33,8.51,30.81,5.77,30.79c-2.55,0-4,1.39-4,3.9C1.81,39.6,8.33,44.89,18.87,44.89Z" transform="translate(-1.19 -1.12)"/><path class="cls-1" d="M37.43,30.78h0A12.81,12.81,0,0,0,44,42.38a18.25,18.25,0,0,0,17.53.13A12.81,12.81,0,0,0,68,30.89a12.57,12.57,0,0,0-6.35-11.5,17.91,17.91,0,0,0-9-2.36,17.67,17.67,0,0,0-8.74,2.22A12.66,12.66,0,0,0,37.43,30.78Zm9.79-4.26c0-5,1.17-7.21,3.81-7.21,4.5,0,6.93,11.32,6.93,16s-1.23,7.1-3.76,7.1C49.36,42.36,47.22,30.89,47.22,26.52Z" transform="translate(-1.19 -1.12)"/><path class="cls-1" d="M71.49,9a5.38,5.38,0,0,1,1.44,3.38V38.26a4.6,4.6,0,0,1-1.32,3.11,2.71,2.71,0,0,0-.9,2h0c0,.59.44.94,1.16,1a3.85,3.85,0,0,1,1-.08c.66,0,1.59,0,2.8.08,3.5.15,8.78.37,9.59-.6a.32.32,0,0,0,.08-.32v0c.08-.81-.42-1.36-1-2a4.27,4.27,0,0,1-1.48-3.1V3a1.19,1.19,0,0,0-.54-1.08C81,1.17,77.47,3.18,74.87,4.64a13.26,13.26,0,0,1-3,1.47c-.72.4-1.11.77-1.2,1.16S71,8.33,71.49,9Z" transform="translate(-1.19 -1.12)"/><path class="cls-1" d="M130.58,44.32a24.57,24.57,0,0,1,4.46,0,1.33,1.33,0,0,0,1-.34,1,1,0,0,0,.23-.77c-2.33-1.94-10.38-21.87-14.26-31.47-1-2.35-1.64-4-2-4.79a3.7,3.7,0,0,0-3.78-2.65,10.65,10.65,0,0,1-2.54,0c-2.12-.12-5-.29-5.76.48a.59.59,0,0,0-.16.46,3.25,3.25,0,0,0,1,2c.78,1,1.66,2.19,1.13,3.62-.1.27-10.57,27.38-10.6,27.45a10.72,10.72,0,0,1-2.08,3c-.78.89-1.46,1.66-1.29,2.19.1.33.53.6,1.32.81a12.74,12.74,0,0,1,2.84,0c2.48.13,5.88.3,6.65-.52a.49.49,0,0,0,.14-.43,1.15,1.15,0,0,1,0-.2,15.28,15.28,0,0,0-1.74-2.37c-1.22-1.4-1.2-1.57.55-6.11l0-.08H120.3l0,.08c1.75,4.52,1.77,4.69.54,6.12a15.63,15.63,0,0,0-1.72,2.36v.22a.31.31,0,0,0,.06.29C120,44.71,126.37,44.48,130.58,44.32Zm-23.42-13.7.06-.17L113,14.3l5.85,16.32h-11.7Z" transform="translate(-1.19 -1.12)"/><path class="cls-1" d="M137.75,43.36v0h0a.39.39,0,0,0,.09.33c.83,1,6.07.75,9.53.6a19.49,19.49,0,0,1,3.82,0c.8-.24,1.23-.51,1.32-.84.14-.5-.51-1.18-1.2-1.91-.91-1-2-2-1.89-3.31V27.72c0-2.4.23-5.57,2.22-5.57,1.3,0,1.6,1.05,1.91,2.16.42,1.49.89,3.17,3.76,3.17,3.51,0,4.24-2.83,4.24-5.21h0a4.93,4.93,0,0,0-4.65-5.39c-3.36-.38-7.47,1.71-8.26,5.42h-.24a7.61,7.61,0,0,1,0-1.87c.09-1.37.21-3.07-.49-3.55-.3-.21-.77-.17-1.38.12-6.27,2.93-7.66,3.58-8,3.71l0,0c-.83.52-1.26,1-1.31,1.42s.44,1.07,1,1.68A4.81,4.81,0,0,1,140,27V38.26a4.54,4.54,0,0,1-1.36,3.15A2.64,2.64,0,0,0,137.75,43.36Z" transform="translate(-1.19 -1.12)"/><path class="cls-1" d="M176.52,44.77c5.28.44,11.69-1.76,12.36-9.41a1,1,0,0,0-.62-1,1.19,1.19,0,0,0-1.31.43,7.72,7.72,0,0,1-9.2,2.8c-3.63-1.4-7.06-5.6-6.57-11.85,0-3.69,1.72-6.41,4.1-6.47h0c2,0,3,1.9,4,3.91,1.2,2.37,2.44,4.82,5.47,5,2.11-.26,3.5-1,4-2.21s0-2.93-1.31-4.63a12.65,12.65,0,0,0-9.26-4.71,8.78,8.78,0,0,0-1.35.11c-6.9,0-14.3,4.45-14.3,14h0C161.9,38.76,169.15,44.15,176.52,44.77Z" transform="translate(-1.19 -1.12)"/><path class="cls-1" d="M192.24,23.29a3.52,3.52,0,0,0,3.85,3.56c2.6,0,3.38-2.07,4.13-4.08.68-1.81,1.32-3.52,3.24-3.52h.12c3,0,3.46,3.59,4,9.87l0,.25-.21-.13a11.09,11.09,0,0,0-5.61-1.42,12.3,12.3,0,0,0-6.22,1.63,7.5,7.5,0,0,0-3.92,6.94c-.35,3.34,1.61,6.09,5.4,7.58,4.11,1.61,9.83,1.31,12.29-2l.24-.32v.4c-.06,1.7,2.52,2.48,5,2.63,3.07.2,6.58-.53,6.71-1.79,0-.55-.32-.75-.79-1-.76-.46-1.79-1.1-2.1-3.59-.76-9.59-1.7-21.5-14.48-21.5h-.42C198.29,16.78,192.24,18.49,192.24,23.29Zm9.84,9.05a2.75,2.75,0,0,1,2.51-1.74,2,2,0,0,1,1.68.47c1.45,1.22,2.27,4.57,2.2,7a5.29,5.29,0,0,1-.8,2.83,2.71,2.71,0,0,1-2.28,1.38h0a1.33,1.33,0,0,1-.28,0,2.32,2.32,0,0,1-1.72-1.05C201.84,39.28,200.91,34.87,202.08,32.34Z" transform="translate(-1.19 -1.12)"/><path class="cls-1" d="M224,41.56c-.63.81-1.18,1.51-1,2,.11.34.55.6,1.33.8h12.25a1.26,1.26,0,0,0,1-.35,1,1,0,0,0,.23-.82,2.87,2.87,0,0,0-1-1.8,4.42,4.42,0,0,1-1.5-3.15,26.49,26.49,0,0,0,0-5c-.23-4.42-.52-9.93,1.55-12.07a3,3,0,0,1,2.21-.91h.07a2.33,2.33,0,0,1,1.88.53c2.21,1.88,2.36,8.23,2.47,12.87a37.42,37.42,0,0,0,.25,4.57,4.34,4.34,0,0,1-1.2,3.21,2.9,2.9,0,0,0-.84,1.75,1,1,0,0,0,.22.83,1.33,1.33,0,0,0,1,.35h11.35a1.34,1.34,0,0,0,1-.36,1,1,0,0,0,.22-.81h0a3.2,3.2,0,0,0-.8-1.85,5.62,5.62,0,0,1-1.24-3.08c-.74-9.81-.74-9.81-.74-9.82-.26-5.81-3.16-10.08-7.75-11.41A10,10,0,0,0,234,21l-.2.29,0-.35a8.69,8.69,0,0,1,0-1c0-1.1.08-2.59-.58-3a1.44,1.44,0,0,0-1.39.11,18.61,18.61,0,0,1-3,1.47c-2.5,1.1-6.28,2.77-6.25,3.75-.06.78.52,1.26,1.19,1.81a3.76,3.76,0,0,1,1.82,3.07V38.27C225.66,39.46,224.79,40.58,224,41.56Z" transform="translate(-1.19 -1.12)"/><path class="cls-1" d="M261.78,29.45a7.5,7.5,0,0,0-3.92,6.94c-.35,3.34,1.62,6.09,5.4,7.58,4.1,1.61,9.83,1.31,12.3-2l.24-.32,0,.4c-.06,1.7,2.51,2.48,5,2.63,3.07.2,6.59-.52,6.71-1.79,0-.55-.32-.75-.79-1-.76-.46-1.78-1.1-2.1-3.59-.76-9.59-1.71-21.5-14.48-21.5h-.42c-5.18,0-11.22,1.71-11.22,6.51a3.51,3.51,0,0,0,3.84,3.56c2.6,0,3.38-2.07,4.13-4.08.68-1.81,1.32-3.52,3.24-3.52h.12c3,0,3.46,3.59,4,9.87l0,.25-.21-.13A11.09,11.09,0,0,0,268,27.82,12.3,12.3,0,0,0,261.78,29.45Zm6.48,2.89a2.77,2.77,0,0,1,2.51-1.74,2,2,0,0,1,1.68.47c1.45,1.22,2.27,4.57,2.2,7a5.29,5.29,0,0,1-.8,2.83,2.71,2.71,0,0,1-2.28,1.38h0a1.33,1.33,0,0,1-.28,0,2.29,2.29,0,0,1-1.71-1.05C268,39.27,267.09,34.87,268.26,32.34Z" transform="translate(-1.19 -1.12)"/><path d="M54.2,42.36c2.53,0,3.76-2.32,3.76-7.1,0-4.63-2.43-15.95-6.93-15.95-2.64,0-3.81,2.22-3.81,7.21C47.22,30.89,49.36,42.36,54.2,42.36Zm1.36-1a33.58,33.58,0,0,1-1.42-8.6c0-4,.76-5.59,1.74-6.22a33.29,33.29,0,0,1,1.45,8.71C57.33,39.26,56.43,40.79,55.56,41.37Z" transform="translate(-1.19 -1.12)"/><path d="M107.77,30.62h11.09L113,14.3l-5.79,16.15-.06.17Zm9.51-2.55L118,30h-1.38Z" transform="translate(-1.19 -1.12)"/><path d="M203.39,41.23a2.32,2.32,0,0,0,1.72,1.05,1.33,1.33,0,0,0,.28,0h0a2.71,2.71,0,0,0,2.28-1.38,5.29,5.29,0,0,0,.8-2.83c.07-2.4-.75-5.75-2.2-7a2,2,0,0,0-1.68-.47,2.75,2.75,0,0,0-2.51,1.74C200.91,34.87,201.84,39.28,203.39,41.23Z" transform="translate(-1.19 -1.12)"/><path d="M269.58,41.23a2.29,2.29,0,0,0,1.71,1.05,1.33,1.33,0,0,0,.28,0h0a2.71,2.71,0,0,0,2.28-1.38,5.29,5.29,0,0,0,.8-2.83c.07-2.4-.75-5.75-2.2-7a2,2,0,0,0-1.68-.47,2.77,2.77,0,0,0-2.51,1.74C267.09,34.87,268,39.27,269.58,41.23Z" transform="translate(-1.19 -1.12)"/></svg>